<svg id="svg" xmlns="http://www.w3.org/2000/svg" xmlns:xlink="http://www.w3.org/1999/xlink" width="400" height="400" viewBox="0, 0, 400,400"><g id="svgg"><path id="path0" d="M74.028 33.086 C 33.317 51.197,0.095 66.397,0.200 66.864 C 0.469 68.058,107.170 164.929,107.928 164.668 C 108.686 164.406,179.755 50.889,180.232 49.177 C 180.736 47.372,150.898 -0.019,149.320 0.078 C 148.620 0.122,114.738 14.975,74.028 33.086 M124.707 199.531 C 56.118 309.273,0.000 399.273,0.000 399.531 C 0.000 399.789,7.681 400.000,17.070 400.000 L 34.140 400.000 216.875 233.893 C 317.379 142.534,399.695 67.387,399.800 66.901 C 399.976 66.086,252.287 -0.002,250.292 -0.001 C 249.809 -0.000,193.295 89.789,124.707 199.531 M254.688 243.062 C 238.145 258.123,224.609 270.708,224.609 271.027 C 224.609 271.346,256.405 300.496,295.265 335.804 L 365.921 400.000 383.026 400.000 C 394.062 400.000,400.038 399.723,399.870 399.220 C 399.410 397.843,285.562 215.692,285.156 215.685 C 284.941 215.681,271.230 228.001,254.688 243.062 " stroke="none" fill="#000000" fill-rule="evenodd"></path></g></svg>